<svg version="1.0" xmlns="http://www.w3.org/2000/svg"
 viewBox="0 0 226 304"
 preserveAspectRatio="xMidYMid meet">
<g transform="translate(0.000000,304.000000) scale(0.100000,-0.100000)"
fill="#000000" stroke="none">
<path d="M1112 2715 c-51 -57 -66 -94 -66 -161 -1 -64 3 -72 86 -182 27 -37
32 -52 33 -100 0 -49 -6 -67 -40 -125 -22 -38 -52 -89 -67 -115 -40 -69 -38
-137 7 -253 19 -50 35 -107 35 -126 0 -48 -25 -96 -71 -138 -65 -58 -43 -73
46 -31 60 28 100 72 115 127 12 44 9 69 -21 168 -35 115 -22 190 49 293 73
107 91 172 68 251 -15 52 -25 69 -105 171 -50 65 -61 114 -41 196 7 28 10 53
7 56 -2 3 -18 -11 -35 -31z"/>
<path d="M975 2413 c16 -38 27 -114 21 -145 -3 -18 -33 -77 -65 -131 -104
-172 -102 -241 9 -377 33 -41 65 -89 71 -107 13 -42 26 -42 34 0 6 32 -2 59
-49 172 -40 95 -36 142 25 266 44 89 52 113 53 164 0 37 -6 71 -16 90 -30 56
-103 115 -83 68z"/>
<path d="M1360 2249 c0 -78 -17 -120 -80 -197 -31 -38 -62 -84 -70 -101 -20
-50 -9 -134 26 -183 16 -23 34 -43 39 -45 7 -2 10 30 10 86 l0 89 43 59 c23
32 57 86 74 121 25 52 29 70 24 103 -7 47 -42 119 -56 119 -6 0 -10 -23 -10
-51z"/>
<path d="M795 1636 c-99 -27 -155 -56 -188 -95 -66 -79 -32 -158 93 -215 100
-46 182 -60 345 -60 181 0 266 17 383 74 98 49 137 96 136 164 -2 58 -67 117
-157 141 -121 33 -158 -1 -42 -40 184 -62 119 -179 -127 -229 -185 -38 -460
-9 -534 56 -70 62 -31 110 129 159 129 39 147 46 147 59 0 17 -101 10 -185
-14z"/>
<path d="M1623 1424 c-81 -29 -143 -131 -128 -210 9 -51 22 -49 45 4 31 72 68
104 128 110 63 6 92 -18 92 -75 0 -55 -32 -100 -140 -196 -107 -94 -122 -113
-145 -185 -15 -45 -15 -57 -4 -93 8 -24 19 -44 25 -46 5 -2 18 20 27 49 26 84
65 133 174 223 56 46 115 103 131 127 81 118 61 232 -51 283 -59 28 -94 30
-154 9z"/>
<path d="M584 1325 c-5 -11 -9 -94 -9 -185 0 -145 3 -174 23 -240 13 -41 37
-98 53 -126 118 -208 423 -283 664 -165 59 29 124 85 113 97 -4 3 -44 -7 -90
-22 -73 -24 -99 -28 -218 -28 -108 -1 -146 3 -189 18 -123 43 -171 84 -222
191 -48 103 -75 201 -90 328 -6 56 -15 113 -19 127 -7 24 -8 24 -16 5z"/>
<path d="M482 703 c-24 -61 -24 -81 1 -135 51 -112 216 -195 427 -214 92 -8
223 7 400 47 198 44 320 56 425 41 47 -7 92 -15 100 -18 31 -12 14 24 -22 49
-48 33 -77 44 -157 58 -77 13 -176 3 -411 -43 -319 -61 -555 -33 -676 81 -26
26 -39 48 -44 76 -15 96 -24 107 -43 58z"/>
</g>
</svg>