<svg xmlns="http://www.w3.org/2000/svg" viewBox="0 0 200 200" width="200" height="200">
  <rect width="200" height="200" fill="white"/>
  <!-- Top-left finder pattern -->
  <rect x="10" y="10" width="56" height="56" rx="4" fill="#1a1a1a"/>
  <rect x="18" y="18" width="40" height="40" rx="2" fill="white"/>
  <rect x="26" y="26" width="24" height="24" rx="1" fill="#1a1a1a"/>
  <!-- Top-right finder pattern -->
  <rect x="134" y="10" width="56" height="56" rx="4" fill="#1a1a1a"/>
  <rect x="142" y="18" width="40" height="40" rx="2" fill="white"/>
  <rect x="150" y="26" width="24" height="24" rx="1" fill="#1a1a1a"/>
  <!-- Bottom-left finder pattern -->
  <rect x="10" y="134" width="56" height="56" rx="4" fill="#1a1a1a"/>
  <rect x="18" y="142" width="40" height="40" rx="2" fill="white"/>
  <rect x="26" y="150" width="24" height="24" rx="1" fill="#1a1a1a"/>
  <!-- Data modules (random-looking pattern) -->
  <rect x="78" y="10" width="8" height="8" fill="#1a1a1a"/>
  <rect x="94" y="10" width="8" height="8" fill="#1a1a1a"/>
  <rect x="110" y="10" width="8" height="8" fill="#1a1a1a"/>
  <rect x="86" y="18" width="8" height="8" fill="#1a1a1a"/>
  <rect x="102" y="18" width="8" height="8" fill="#1a1a1a"/>
  <rect x="118" y="26" width="8" height="8" fill="#1a1a1a"/>
  <rect x="78" y="26" width="8" height="8" fill="#1a1a1a"/>
  <rect x="94" y="34" width="8" height="8" fill="#1a1a1a"/>
  <rect x="110" y="34" width="8" height="8" fill="#1a1a1a"/>
  <rect x="78" y="42" width="8" height="8" fill="#1a1a1a"/>
  <rect x="118" y="42" width="8" height="8" fill="#1a1a1a"/>
  <rect x="86" y="50" width="8" height="8" fill="#1a1a1a"/>
  <rect x="102" y="50" width="8" height="8" fill="#1a1a1a"/>
  <rect x="118" y="58" width="8" height="8" fill="#1a1a1a"/>
  <!-- Left side timing/data -->
  <rect x="10" y="78" width="8" height="8" fill="#1a1a1a"/>
  <rect x="10" y="94" width="8" height="8" fill="#1a1a1a"/>
  <rect x="10" y="110" width="8" height="8" fill="#1a1a1a"/>
  <rect x="18" y="86" width="8" height="8" fill="#1a1a1a"/>
  <rect x="26" y="78" width="8" height="8" fill="#1a1a1a"/>
  <rect x="34" y="94" width="8" height="8" fill="#1a1a1a"/>
  <rect x="42" y="78" width="8" height="8" fill="#1a1a1a"/>
  <rect x="50" y="110" width="8" height="8" fill="#1a1a1a"/>
  <rect x="42" y="102" width="8" height="8" fill="#1a1a1a"/>
  <rect x="58" y="86" width="8" height="8" fill="#1a1a1a"/>
  <rect x="26" y="110" width="8" height="8" fill="#1a1a1a"/>
  <!-- Right side timing/data -->
  <rect x="134" y="78" width="8" height="8" fill="#1a1a1a"/>
  <rect x="150" y="78" width="8" height="8" fill="#1a1a1a"/>
  <rect x="166" y="86" width="8" height="8" fill="#1a1a1a"/>
  <rect x="142" y="94" width="8" height="8" fill="#1a1a1a"/>
  <rect x="158" y="94" width="8" height="8" fill="#1a1a1a"/>
  <rect x="134" y="102" width="8" height="8" fill="#1a1a1a"/>
  <rect x="174" y="102" width="8" height="8" fill="#1a1a1a"/>
  <rect x="150" y="110" width="8" height="8" fill="#1a1a1a"/>
  <rect x="166" y="110" width="8" height="8" fill="#1a1a1a"/>
  <rect x="142" y="118" width="8" height="8" fill="#1a1a1a"/>
  <rect x="174" y="78" width="8" height="8" fill="#1a1a1a"/>
  <!-- Center data area -->
  <rect x="78" y="78" width="8" height="8" fill="#1a1a1a"/>
  <rect x="94" y="78" width="8" height="8" fill="#1a1a1a"/>
  <rect x="110" y="78" width="8" height="8" fill="#1a1a1a"/>
  <rect x="86" y="86" width="8" height="8" fill="#1a1a1a"/>
  <rect x="118" y="86" width="8" height="8" fill="#1a1a1a"/>
  <rect x="78" y="94" width="8" height="8" fill="#1a1a1a"/>
  <rect x="110" y="94" width="8" height="8" fill="#1a1a1a"/>
  <rect x="94" y="102" width="8" height="8" fill="#1a1a1a"/>
  <rect x="118" y="102" width="8" height="8" fill="#1a1a1a"/>
  <rect x="78" y="110" width="8" height="8" fill="#1a1a1a"/>
  <rect x="102" y="110" width="8" height="8" fill="#1a1a1a"/>
  <rect x="86" y="118" width="8" height="8" fill="#1a1a1a"/>
  <rect x="110" y="118" width="8" height="8" fill="#1a1a1a"/>
  <!-- Bottom data area -->
  <rect x="78" y="134" width="8" height="8" fill="#1a1a1a"/>
  <rect x="94" y="134" width="8" height="8" fill="#1a1a1a"/>
  <rect x="118" y="134" width="8" height="8" fill="#1a1a1a"/>
  <rect x="86" y="142" width="8" height="8" fill="#1a1a1a"/>
  <rect x="110" y="142" width="8" height="8" fill="#1a1a1a"/>
  <rect x="78" y="150" width="8" height="8" fill="#1a1a1a"/>
  <rect x="102" y="150" width="8" height="8" fill="#1a1a1a"/>
  <rect x="118" y="158" width="8" height="8" fill="#1a1a1a"/>
  <rect x="86" y="166" width="8" height="8" fill="#1a1a1a"/>
  <rect x="110" y="166" width="8" height="8" fill="#1a1a1a"/>
  <rect x="94" y="174" width="8" height="8" fill="#1a1a1a"/>
  <rect x="78" y="174" width="8" height="8" fill="#1a1a1a"/>
  <rect x="118" y="174" width="8" height="8" fill="#1a1a1a"/>
  <!-- Bottom-right data -->
  <rect x="134" y="134" width="8" height="8" fill="#1a1a1a"/>
  <rect x="150" y="142" width="8" height="8" fill="#1a1a1a"/>
  <rect x="166" y="134" width="8" height="8" fill="#1a1a1a"/>
  <rect x="174" y="150" width="8" height="8" fill="#1a1a1a"/>
  <rect x="142" y="158" width="8" height="8" fill="#1a1a1a"/>
  <rect x="158" y="166" width="8" height="8" fill="#1a1a1a"/>
  <rect x="134" y="166" width="8" height="8" fill="#1a1a1a"/>
  <rect x="166" y="174" width="8" height="8" fill="#1a1a1a"/>
  <rect x="150" y="174" width="8" height="8" fill="#1a1a1a"/>
  <rect x="174" y="166" width="8" height="8" fill="#1a1a1a"/>
  <rect x="142" y="142" width="8" height="8" fill="#1a1a1a"/>
  <rect x="174" y="134" width="8" height="8" fill="#1a1a1a"/>
  <rect x="158" y="150" width="8" height="8" fill="#1a1a1a"/>
  <rect x="134" y="150" width="8" height="8" fill="#1a1a1a"/>
</svg>
